HIERARCHY
ROOT Hips
{
  OFFSET -286.184 90.5621 1117.17
  CHANNELS 6 Xposition Yposition Zposition Zrotation Xrotation Yrotation
  JOINT Spine
  {
    OFFSET 0 8.00001 6.10676e-05
    CHANNELS 6 Xposition Yposition Zposition Zrotation Xrotation Yrotation
    JOINT Spine1
    {
      OFFSET 8.20143e-05 7.99999 -9.29041e-05
      CHANNELS 6 Xposition Yposition Zposition Zrotation Xrotation Yrotation
      JOINT Spine2
      {
        OFFSET -0.000729719 8.00003 -0.000538434
        CHANNELS 6 Xposition Yposition Zposition Zrotation Xrotation Yrotation
        JOINT Spine3
        {
          OFFSET 0 8 0
          CHANNELS 6 Xposition Yposition Zposition Zrotation Xrotation Yrotation
          JOINT Neck
          {
            OFFSET 0.000139098 17 -0.000160552
            CHANNELS 6 Xposition Yposition Zposition Zrotation Xrotation Yrotation
            JOINT Head
            {
              OFFSET -0.00462301 10.8 -0.00510914
              CHANNELS 6 Xposition Yposition Zposition Zrotation Xrotation Yrotation
              End Site
              {
                OFFSET 0 20.25 0
              }
            }
          }
          JOINT LeftShoulder
          {
            OFFSET 5.00005 17 -0.000137069
            CHANNELS 6 Xposition Yposition Zposition Zrotation Xrotation Yrotation
            JOINT LeftShoulder2
            {
              OFFSET 6.45 0 0
              CHANNELS 6 Xposition Yposition Zposition Zrotation Xrotation Yrotation
              JOINT LeftArm
              {
                OFFSET 6.44993 0 7.92198e-05
                CHANNELS 6 Xposition Yposition Zposition Zrotation Xrotation Yrotation
                JOINT LeftForeArm
                {
                  OFFSET -0.00118011 -32.4011 -2.0029
                  CHANNELS 6 Xposition Yposition Zposition Zrotation Xrotation Yrotation
                  JOINT LeftHand
                  {
                    OFFSET -0.0012599 -25.6462 2.00364
                    CHANNELS 6 Xposition Yposition Zposition Zrotation Xrotation Yrotation
                    JOINT LeftHandThumb1
                    {
                      OFFSET -0.499882 -1.50221 2.6512
                      CHANNELS 6 Xposition Yposition Zposition Zrotation Xrotation Yrotation
                      JOINT LeftHandThumb2
                      {
                        OFFSET -0.000525779 -3.79939 3.69989
                        CHANNELS 6 Xposition Yposition Zposition Zrotation Xrotation Yrotation
                        JOINT LeftHandThumb3
                        {
                          OFFSET 0.000780104 -3.00162 2.69672
                          CHANNELS 6 Xposition Yposition Zposition Zrotation Xrotation Yrotation
                          End Site
                          {
                            OFFSET 0.00155772 -2.29803 1.80367
                          }
                        }
                      }
                    }
                    JOINT LeftHandIndex
                    {
                      OFFSET -5.27567e-05 -1.89963 1.60059
                      CHANNELS 6 Xposition Yposition Zposition Zrotation Xrotation Yrotation
                      JOINT LeftHandIndex1
                      {
                        OFFSET -0.00269481 -8.30183 1.90191
                        CHANNELS 6 Xposition Yposition Zposition Zrotation Xrotation Yrotation
                        JOINT LeftHandIndex2
                        {
                          OFFSET -5.83552e-05 -4.50072 -0.000772977
                          CHANNELS 6 Xposition Yposition Zposition Zrotation Xrotation Yrotation
                          JOINT LeftHandIndex3
                          {
                            OFFSET -0.000427118 -3.4051 -5.86495e-05
                            CHANNELS 6 Xposition Yposition Zposition Zrotation Xrotation Yrotation
                            End Site
                            {
                              OFFSET -0.00132804 -2.60032 0.00127537
                            }
                          }
                        }
                      }
                    }
                    JOINT LeftHandMiddle
                    {
                      OFFSET -0.255868 -2.20065 0.397178
                      CHANNELS 6 Xposition Yposition Zposition Zrotation Xrotation Yrotation
                      JOINT LeftHandMiddle1
                      {
                        OFFSET -0.00364081 -8.29917 1.00166
                        CHANNELS 6 Xposition Yposition Zposition Zrotation Xrotation Yrotation
                        JOINT LeftHandMiddle2
                        {
                          OFFSET 0.000292993 -4.65002 -4.46866e-05
                          CHANNELS 6 Xposition Yposition Zposition Zrotation Xrotation Yrotation
                          JOINT LeftHandMiddle3
                          {
                            OFFSET -0.00157179 -3.29991 0.00166891
                            CHANNELS 6 Xposition Yposition Zposition Zrotation Xrotation Yrotation
                            End Site
                            {
                              OFFSET 0.00332002 -2.69761 -0.00177817
                            }
                          }
                        }
                      }
                    }
                    JOINT LeftHandRing
                    {
                      OFFSET -0.500331 -2.15077 -0.799251
                      CHANNELS 6 Xposition Yposition Zposition Zrotation Xrotation Yrotation
                      JOINT LeftHandRing1
                      {
                        OFFSET -0.00154602 -7.75179 -0.2027
                        CHANNELS 6 Xposition Yposition Zposition Zrotation Xrotation Yrotation
                        JOINT LeftHandRing2
                        {
                          OFFSET -0.00222939 -3.80083 0.000222412
                          CHANNELS 6 Xposition Yposition Zposition Zrotation Xrotation Yrotation
                          JOINT LeftHandRing3
                          {
                            OFFSET 0.000603175 -3.39671 -0.000715877
                            CHANNELS 6 Xposition Yposition Zposition Zrotation Xrotation Yrotation
                            End Site
                            {
                              OFFSET 0.00181561 -2.59818 -0.00104395
                            }
                          }
                        }
                      }
                    }
                    JOINT LeftHandPinky
                    {
                      OFFSET -0.750587 -1.75066 -1.85064
                      CHANNELS 6 Xposition Yposition Zposition Zrotation Xrotation Yrotation
                      JOINT LeftHandPinky1
                      {
                        OFFSET 0.000155829 -7.14998 -1.0001
                        CHANNELS 6 Xposition Yposition Zposition Zrotation Xrotation Yrotation
                        JOINT LeftHandPinky2
                        {
                          OFFSET -0.00367408 -3.00565 -0.00391968
                          CHANNELS 6 Xposition Yposition Zposition Zrotation Xrotation Yrotation
                          JOINT LeftHandPinky3
                          {
                            OFFSET 0.000889374 -2.34892 -0.000303466
                            CHANNELS 6 Xposition Yposition Zposition Zrotation Xrotation Yrotation
                            End Site
                            {
                              OFFSET -6.81399e-05 -2.1 -2.91135e-05
                            }
                          }
                        }
                      }
                    }
                  }
                }
              }
            }
          }
          JOINT RightShoulder
          {
            OFFSET -5 17 -9.71753e-05
            CHANNELS 6 Xposition Yposition Zposition Zrotation Xrotation Yrotation
            JOINT RightShoulder2
            {
              OFFSET -6.45 0 0
              CHANNELS 6 Xposition Yposition Zposition Zrotation Xrotation Yrotation
              JOINT RightArm
              {
                OFFSET -6.4499 4.27383e-05 0.000199656
                CHANNELS 6 Xposition Yposition Zposition Zrotation Xrotation Yrotation
                JOINT RightForeArm
                {
                  OFFSET -6.90714e-05 -32.3851 -1.98569
                  CHANNELS 6 Xposition Yposition Zposition Zrotation Xrotation Yrotation
                  JOINT RightHand
                  {
                    OFFSET -0.000824036 -25.6501 2.00268
                    CHANNELS 6 Xposition Yposition Zposition Zrotation Xrotation Yrotation
                    JOINT RightHandThumb1
                    {
                      OFFSET 0.499833 -1.49993 2.64979
                      CHANNELS 6 Xposition Yposition Zposition Zrotation Xrotation Yrotation
                      JOINT RightHandThumb2
                      {
                        OFFSET 0.000406279 -3.80004 3.70016
                        CHANNELS 6 Xposition Yposition Zposition Zrotation Xrotation Yrotation
                        JOINT RightHandThumb3
                        {
                          OFFSET 0.00038099 -3.01147 2.69729
                          CHANNELS 6 Xposition Yposition Zposition Zrotation Xrotation Yrotation
                          End Site
                          {
                            OFFSET 0.000140982 -2.29998 1.79998
                          }
                        }
                      }
                    }
                    JOINT RightHandIndex
                    {
                      OFFSET -0.000564666 -1.90026 1.60092
                      CHANNELS 6 Xposition Yposition Zposition Zrotation Xrotation Yrotation
                      JOINT RightHandIndex1
                      {
                        OFFSET 8.38238e-05 -8.30015 1.90004
                        CHANNELS 6 Xposition Yposition Zposition Zrotation Xrotation Yrotation
                        JOINT RightHandIndex2
                        {
                          OFFSET 0.000519524 -4.49823 -0.000198015
                          CHANNELS 6 Xposition Yposition Zposition Zrotation Xrotation Yrotation
                          JOINT RightHandIndex3
                          {
                            OFFSET 2.69873e-05 -3.39921 0.00073625
                            CHANNELS 6 Xposition Yposition Zposition Zrotation Xrotation Yrotation
                            End Site
                            {
                              OFFSET -0.000332591 -2.60009 -0.000513614
                            }
                          }
                        }
                      }
                    }
                    JOINT RightHandMiddle
                    {
                      OFFSET 0.247974 -2.2042 0.404489
                      CHANNELS 6 Xposition Yposition Zposition Zrotation Xrotation Yrotation
                      JOINT RightHandMiddle1
                      {
                        OFFSET -0.00108668 -8.30014 1.00205
                        CHANNELS 6 Xposition Yposition Zposition Zrotation Xrotation Yrotation
                        JOINT RightHandMiddle2
                        {
                          OFFSET -0.000347029 -4.65015 -0.000280078
                          CHANNELS 6 Xposition Yposition Zposition Zrotation Xrotation Yrotation
                          JOINT RightHandMiddle3
                          {
                            OFFSET -0.003093 -3.29169 0.0173895
                            CHANNELS 6 Xposition Yposition Zposition Zrotation Xrotation Yrotation
                            End Site
                            {
                              OFFSET 0.000189633 -2.70064 -0.000989272
                            }
                          }
                        }
                      }
                    }
                    JOINT RightHandRing
                    {
                      OFFSET 0.500789 -2.14984 -0.800127
                      CHANNELS 6 Xposition Yposition Zposition Zrotation Xrotation Yrotation
                      JOINT RightHandRing1
                      {
                        OFFSET 0.000964062 -7.74905 -0.202002
                        CHANNELS 6 Xposition Yposition Zposition Zrotation Xrotation Yrotation
                        JOINT RightHandRing2
                        {
                          OFFSET 6.99816e-05 -3.80001 6.41524e-05
                          CHANNELS 6 Xposition Yposition Zposition Zrotation Xrotation Yrotation
                          JOINT RightHandRing3
                          {
                            OFFSET -2.79253e-05 -3.40136 -0.00267296
                            CHANNELS 6 Xposition Yposition Zposition Zrotation Xrotation Yrotation
                            End Site
                            {
                              OFFSET -0.000378149 -2.59979 -6.04001e-05
                            }
                          }
                        }
                      }
                    }
                    JOINT RightHandPinky
                    {
                      OFFSET 0.75178 -1.74936 -1.85417
                      CHANNELS 6 Xposition Yposition Zposition Zrotation Xrotation Yrotation
                      JOINT RightHandPinky1
                      {
                        OFFSET 0.000106193 -7.14999 -0.999999
                        CHANNELS 6 Xposition Yposition Zposition Zrotation Xrotation Yrotation
                        JOINT RightHandPinky2
                        {
                          OFFSET -6.34545e-05 -3.00004 0.000166953
                          CHANNELS 6 Xposition Yposition Zposition Zrotation Xrotation Yrotation
                          JOINT RightHandPinky3
                          {
                            OFFSET -0.000175443 -2.34646 0.00185852
                            CHANNELS 6 Xposition Yposition Zposition Zrotation Xrotation Yrotation
                            End Site
                            {
                              OFFSET -0.000409123 -2.10154 -0.00275516
                            }
                          }
                        }
                      }
                    }
                  }
                }
              }
            }
          }
        }
      }
    }
  }
  JOINT LeftUpLeg
  {
    OFFSET 8.00004 0 3.19852e-05
    CHANNELS 6 Xposition Yposition Zposition Zrotation Xrotation Yrotation
    JOINT LeftLeg
    {
      OFFSET 0.000709475 -45.0003 -0.999663
      CHANNELS 6 Xposition Yposition Zposition Zrotation Xrotation Yrotation
      JOINT LeftFoot
      {
        OFFSET 0.00096248 -41.0001 -2.00054
        CHANNELS 6 Xposition Yposition Zposition Zrotation Xrotation Yrotation
        JOINT LeftToeBase
        {
          OFFSET -0.000653752 -7.5 12.4993
          CHANNELS 6 Xposition Yposition Zposition Zrotation Xrotation Yrotation
          JOINT LeftFootToe
          {
            OFFSET 0 0 4
            CHANNELS 6 Xposition Yposition Zposition Zrotation Xrotation Yrotation
            End Site
            {
              OFFSET 0 0 0
            }
          }
        }
      }
    }
  }
  JOINT RightUpLeg
  {
    OFFSET -8.00004 0 -3.19852e-05
    CHANNELS 6 Xposition Yposition Zposition Zrotation Xrotation Yrotation
    JOINT RightLeg
    {
      OFFSET 0.000130348 -45.0001 -0.999868
      CHANNELS 6 Xposition Yposition Zposition Zrotation Xrotation Yrotation
      JOINT RightFoot
      {
        OFFSET -0.00185555 -41.0007 -2.00181
        CHANNELS 6 Xposition Yposition Zposition Zrotation Xrotation Yrotation
        JOINT RightToeBase
        {
          OFFSET -0.000367186 -7.5 12.4997
          CHANNELS 6 Xposition Yposition Zposition Zrotation Xrotation Yrotation
          JOINT RightFootToe
          {
            OFFSET 0 0 4
            CHANNELS 6 Xposition Yposition Zposition Zrotation Xrotation Yrotation
            End Site
            {
              OFFSET 0 0 0
            }
          }
        }
      }
    }
  }
}
MOTION
Frames:	3
Frame Time:	0.0111111
-285.158 90.0482 1116.85 2.39978 5.38513 -116.423 -2.27374e-13 8 2.27374e-13 11.9403 6.70917 8.5843 2.27374e-13 8 1.7053e-13 2.88461 5.50714 2.53134 0 8 -1.42109e-13 1.47237 2.73965 1.29997 2.27374e-13 8 -2.84217e-14 1.47003 2.73536 1.2978 0 17 1.13687e-13 -1.90829 5.99696 7.70902 0 10.8 -8.52651e-14 -5.80879 13.5315 18.6256 5 17 1.13687e-13 -4.6407 -1.92417 -2.15611 6.45 -1.13687e-13 0 -1.36615 -0.84807 -0.971688 6.45 -2.84217e-14 0 55.8175 -65.004 40.1771 2.27374e-13 -32.4 -2 4.74076 -10.5394 10.4115 4.54747e-13 -25.65 2 -56.7516 -2.87658 -66.8503 -0.5 -1.5 2.65 60.2858 -68.2157 106.21 1.7053e-13 -3.8 3.7 -0.160001 3.157 0.0517312 -1.7053e-13 -3 2.7 -0.0464153 17.4657 0.0204852 -1.13687e-13 -1.9 1.6 6.93675e-06 -6.62223e-06 -2.80126e-06 0 -8.3 1.9 -0.240193 4.19729 0.0256491 5.68434e-14 -4.5 1.13687e-13 -0.00657145 0.270015 -0.350383 5.68434e-14 -3.4 0 -0.00251706 0.252623 -0.368392 -0.25 -2.2 0.4 6.93675e-06 -6.62223e-06 -2.80126e-06 0 -8.3 1 -0.776064 6.50203 0.143459 -1.7053e-13 -4.65 0 -0.612855 0.307925 -0.0557557 -1.13687e-13 -3.3 -2.27374e-13 13.7538 0.082155 0.064862 -0.5 -2.15 -0.8 6.93675e-06 -6.62223e-06 -2.80126e-06 -1.13687e-13 -7.75 -0.2 -1.84345 10.9187 0.435189 0 -3.8 -2.27374e-13 -1.09528 0.00370817 0.00414591 -1.13687e-13 -3.4 0 -89.9963 0.0327133 -1.76921 -0.75 -1.75 -1.85 6.93675e-06 -6.62223e-06 -2.80126e-06 0 -7.15 -1 -2.41188 13.1793 0.622503 0 -3 0 -2.74597 -0.0113089 -0.0014313 8.52651e-14 -2.35 2.27374e-13 -2.61679 0.00154411 -0.00261323 -5 17 -2.84217e-14 -2.63701 -4.60226 -3.55638 -6.45 -8.52651e-14 -8.52651e-14 -1.22045 0.983657 -2.93265 -6.45 2.84217e-14 5.68434e-14 34.7552 -46.9583 42.1121 0 -32.4 -2 -14.9254 -53.1923 -18.2943 0 -25.65 2 22.1168 21.7235 16.9004 0.5 -1.5 2.65 145.707 67.3521 20.0814 2.27374e-13 -3.8 3.7 0.664513 48.712 0.0787488 -2.27374e-13 -3 2.7 0.0467262 27.2138 -0.011499 1.13687e-13 -1.9 1.6 -5.77173e-06 -3.66789e-06 1.70029e-06 0 -8.3 1.9 5.4093 0.363342 0.0317698 1.13687e-13 -4.5 -2.27374e-13 -0.0132362 0.0165997 0.256607 -1.13687e-13 -3.4 -2.27374e-13 -0.0020152 0.00185299 0.255089 0.25 -2.2 0.4 -5.77173e-06 -3.66789e-06 1.70029e-06 0 -8.3 1 13.7079 9.8916 -1.44055 -1.13687e-13 -4.65 -1.13687e-13 1.2685 14.1739 9.82183 2.27374e-13 -3.3 0 52.379 0.0076229 -0.00133844 0.5 -2.15 -0.8 -5.77173e-06 -3.66789e-06 1.70029e-06 2.27374e-13 -7.75 -0.2 42.1923 2.53689 -2.6834 5.68434e-14 -3.8 -2.84217e-14 2.38961 20.7857 15.172 0 -3.4 -2.27374e-13 56.8646 0.126358 0.0431875 0.75 -1.75 -1.85 -5.77173e-06 -3.66789e-06 1.70029e-06 0 -7.15 -1 64.1258 -2.79835 -3.44986 0 -3 7.10543e-14 4.2337 13.3152 4.32084 0 -2.35 0 28.0004 -0.0017568 0.0111648 8 0 -1.13687e-13 4.61236 -21.4688 0.653199 0 -45 -1 9.6595 6.27275 -2.38837 0 -41 -2 -8.51037 8.40293 -25.1001 0 -7.5 12.5 -5.1543e-07 -1.07823e-07 -0.036402 -1.13687e-13 1.42109e-14 4 3.22833 -10.157 18.1932 -8 0 1.13687e-13 -3.9198 3.70809 0.554842 0 -45 -1 24.9885 -7.72609 -5.9199 0 -41 -2 -15.5185 2.38149 -19.5878 0 -7.5 12.5 0.00121059 0.413246 -0.16562 1.13687e-13 -8.88178e-16 4 -1.07438 6.18838 40.3873 
-285.189 90.0538 1116.85 2.39794 5.38044 -116.451 2.27374e-13 8 8.52651e-14 12.0085 6.68916 8.58408 0 8 1.7053e-13 2.9115 5.50125 2.54291 -2.27374e-13 8 -1.7053e-13 1.48593 2.73619 1.30613 0 8 0 1.4833 2.7322 1.30367 0 17 5.68434e-14 -1.92341 6.03395 7.68411 0 10.8 -1.42109e-13 -5.85032 13.6166 18.5743 5 17 1.13687e-13 -4.66729 -1.92643 -2.17125 6.45 -5.68434e-14 0 -1.36062 -0.84606 -0.958999 6.45 2.84217e-14 0 55.5644 -65.0513 39.7018 0 -32.4 -2 4.86856 -10.7009 10.2738 0 -25.65 2 -56.4751 -2.83763 -67.9343 -0.5 -1.5 2.65 63.0724 -66.9823 111.251 1.13687e-13 -3.8 3.7 -0.194302 5.14308 0.0650339 -5.68434e-14 -3 2.7 -0.0444393 18.3837 0.0209294 -1.42109e-13 -1.9 1.6 6.93675e-06 -6.62223e-06 -2.80126e-06 -5.68434e-14 -8.3 1.9 -0.247753 4.26562 0.0269461 2.84217e-14 -4.5 0 -0.00647435 0.270199 -0.350359 -2.84217e-14 -3.4 0 -0.00247535 0.252853 -0.368266 -0.25 -2.2 0.4 6.93675e-06 -6.62223e-06 -2.80126e-06 -2.84217e-14 -8.3 1 -0.768871 6.51905 0.140014 -1.98952e-13 -4.65 0 -0.612856 0.306059 -0.0558887 -2.84217e-14 -3.3 0 13.6536 0.0818548 0.0636299 -0.5 -2.15 -0.8 6.93675e-06 -6.62223e-06 -2.80126e-06 -8.52651e-14 -7.75 -0.2 -1.80002 10.8097 0.419885 5.68434e-14 -3.8 0 -1.09426 0.00388995 0.00427801 -8.52651e-14 -3.4 0 -89.9963 0.0327133 -1.76776 -0.75 -1.75 -1.85 6.93675e-06 -6.62223e-06 -2.80126e-06 2.84217e-14 -7.15 -1 -2.34834 13.0057 0.598278 -5.68434e-14 -3 0 -3.24186 -0.0112705 0.00154539 1.7053e-13 -2.35 0 -3.08942 0.00153404 -0.000921467 -5 17 -5.68434e-14 -2.62837 -4.65656 -3.51218 -6.45 -1.13687e-13 -5.68434e-14 -1.22596 0.988688 -2.93202 -6.45 2.84217e-14 2.84217e-14 34.6497 -46.9333 42.1401 0 -32.4 -2 -15.9063 -53.7484 -18.099 0 -25.65 2 21.0962 21.2526 18.5424 0.5 -1.5 2.65 142.744 65.7726 24.9838 4.54747e-13 -3.8 3.7 0.664511 48.7126 0.0787505 -2.27374e-13 -3 2.7 0.0469627 27.2138 -0.0119403 -1.13687e-13 -1.9 1.6 -5.77173e-06 -3.66789e-06 1.70029e-06 -1.13687e-13 -8.3 1.9 5.1955 -0.472081 0.0962433 1.13687e-13 -4.5 -2.27374e-13 -0.0134288 0.0156769 0.256786 1.13687e-13 -3.4 -2.27374e-13 -0.00201088 0.00088064 0.255263 0.25 -2.2 0.4 -5.77173e-06 -3.66789e-06 1.70029e-06 0 -8.3 1 12.6096 9.37635 -1.22213 -2.27374e-13 -4.65 -5.68434e-14 1.26863 14.1633 9.81667 0 -3.3 0 52.3571 0.00804226 0.00853269 0.5 -2.15 -0.8 -5.77173e-06 -3.66789e-06 1.70029e-06 0 -7.75 -0.2 41.4024 2.41363 -2.52204 5.68434e-14 -3.8 0 2.47532 20.6503 14.8921 -1.7053e-13 -3.4 -3.41061e-13 55.932 0.173855 0.072418 0.75 -1.75 -1.85 -5.77173e-06 -3.66789e-06 1.70029e-06 -1.13687e-13 -7.15 -1 63.3081 -3.27436 -2.99289 -5.68434e-14 -3 8.52651e-14 4.23648 13.3025 4.28757 0 -2.35 0 27.9514 -0.00178887 -2.14891e-06 8 0 -1.42109e-13 4.61185 -21.4572 0.670671 0 -45 -1 9.64859 6.28286 -2.40387 0 -41 -2 -8.50772 8.45042 -25.0913 1.13687e-13 -7.5 12.5 -5.1543e-07 -1.07823e-07 -0.0365133 -1.13687e-13 3.55271e-15 4 3.23643 -10.1928 18.195 -8 0 1.13687e-13 -3.922 3.72992 0.562686 2.27374e-13 -45 -1 24.9515 -7.73637 -5.90546 2.27374e-13 -41 -2 -15.4836 2.3792 -19.5797 0 -7.5 12.5 0.00121459 0.413901 -0.165912 0 8.88178e-16 4 -1.10217 6.18936 40.3876 
-285.218 90.0598 1116.86 2.3957 5.37594 -116.474 0 8 1.13687e-13 12.0759 6.6721 8.58646 4.54747e-13 8 1.13687e-13 2.9371 5.4961 2.55395 0 8 -8.52651e-14 1.49884 2.7337 1.3118 -2.27374e-13 8 2.84217e-14 1.4964 2.72937 1.30976 -2.27374e-13 17 1.42109e-13 -1.93495 6.06465 7.65777 0 10.8 -1.42109e-13 -5.88094 13.6878 18.5178 5 17 8.52651e-14 -4.69233 -1.93018 -2.18134 6.45 -8.52651e-14 2.84217e-14 -1.35509 -0.844941 -0.947317 6.45 0 -8.52651e-14 55.3333 -65.1246 39.2395 0 -32.4 -2 4.98233 -10.8102 10.1597 0 -25.65 2 -56.1883 -2.7805 -69.0613 -0.5 -1.5 2.65 65.7035 -65.5762 116.192 1.7053e-13 -3.8 3.7 -0.219292 7.3016 0.0740931 -5.68434e-14 -3 2.7 -0.0462791 19.2348 0.021303 -8.52651e-14 -1.9 1.6 6.93675e-06 -6.62223e-06 -2.80126e-06 0 -8.3 1.9 -0.251277 4.28563 0.025021 -2.84217e-14 -4.5 2.27374e-13 -0.00637759 0.270379 -0.350329 2.84217e-14 -3.4 0 -0.00243423 0.253078 -0.368037 -0.25 -2.2 0.4 6.93675e-06 -6.62223e-06 -2.80126e-06 -2.84217e-14 -8.3 1 -0.756913 6.49494 0.134102 -1.7053e-13 -4.65 0 -0.612857 0.304168 -0.056012 -1.42109e-13 -3.3 0 13.5714 0.0815066 0.0624047 -0.5 -2.15 -0.8 6.93675e-06 -6.62223e-06 -2.80126e-06 -1.13687e-13 -7.75 -0.2 -1.75093 10.673 0.402801 -2.84217e-14 -3.8 2.27374e-13 -1.1043 0.00407363 0.00441342 -1.13687e-13 -3.4 2.27374e-13 -89.9963 0.0327134 -1.76632 -0.75 -1.75 -1.85 6.93675e-06 -6.62223e-06 -2.80126e-06 -2.84217e-14 -7.15 -1 -2.27807 12.8094 0.572741 -5.68434e-14 -3 0 -3.8812 -0.0112256 0.00378528 1.13687e-13 -2.35 0 -3.65646 0.00151508 0.00240006 -5 17 0 -2.61697 -4.71358 -3.46483 -6.45 -1.13687e-13 -8.52651e-14 -1.23218 0.993502 -2.93185 -6.45 0 -2.84217e-14 34.5472 -46.8959 42.187 0 -32.4 -2 -16.9509 -54.3398 -17.9202 0 -25.65 2 19.9537 20.6779 20.3585 0.5 -1.5 2.65 140.098 63.9442 29.7445 2.27374e-13 -3.8 3.7 0.664509 48.7132 0.0787522 2.27374e-13 -3 2.7 0.0473028 27.2138 -0.0126092 2.27374e-13 -1.9 1.6 -5.77173e-06 -3.66789e-06 1.70029e-06 1.13687e-13 -8.3 1.9 4.94172 -1.40593 0.150628 2.27374e-13 -4.5 -2.27374e-13 -0.0136266 0.0147749 0.256961 -1.13687e-13 -3.4 -2.27374e-13 -0.00200655 -9.15317e-05 0.255435 0.25 -2.2 0.4 -5.77173e-06 -3.66789e-06 1.70029e-06 -1.13687e-13 -8.3 1 11.5054 8.73283 -1.00917 -2.27374e-13 -4.65 -1.13687e-13 1.28011 14.1252 9.75489 0 -3.3 0 52.1193 0.00845285 0.0280414 0.5 -2.15 -0.8 -5.77173e-06 -3.66789e-06 1.70029e-06 0 -7.75 -0.2 40.2499 2.23547 -2.32156 5.68434e-14 -3.8 0 2.56527 20.5439 14.6059 -5.68434e-14 -3.4 -2.27374e-13 55.017 0.182017 0.0825826 0.75 -1.75 -1.85 -5.77173e-06 -3.66789e-06 1.70029e-06 2.27374e-13 -7.15 -1 62.4071 -3.86255 -2.49634 -8.52651e-14 -3 8.52651e-14 4.22186 13.2052 4.22141 5.68434e-14 -2.35 -5.68434e-14 27.7709 -0.0018039 0.00320146 8 0 -1.13687e-13 4.61249 -21.4448 0.688836 0 -45 -1 9.63145 6.28839 -2.41759 0 -41 -2 -8.49977 8.49351 -25.0916 -1.13687e-13 -7.5 12.5 -5.15431e-07 -1.07823e-07 -0.0366246 -2.27374e-13 1.06581e-14 4 3.24129 -10.2206 18.1964 -8 0 1.13687e-13 -3.92456 3.75245 0.566261 0 -45 -1 24.9119 -7.74828 -5.89032 0 -41 -2 -15.4472 2.37852 -19.573 1.13687e-13 -7.5 12.5 0.00121859 0.414554 -0.166203 1.13687e-13 8.88178e-16 4 -1.12953 6.19062 40.3879 
